<?xml version="1.0" standalone="no"?><!DOCTYPE svg PUBLIC "-//W3C//DTD SVG 1.1//EN" "http://www.w3.org/Graphics/SVG/1.1/DTD/svg11.dtd"><svg t="1731861105260" class="icon" viewBox="0 0 1024 1024" version="1.1" xmlns="http://www.w3.org/2000/svg" p-id="7917" xmlns:xlink="http://www.w3.org/1999/xlink" width="200" height="200"><path d="M400.699373 153.402365c0.060592-20.298171-1.211831-42.595863 3.029578-60.773329 22.237101-96.461755 125.48511-120.516602 196.861961-58.289075 38.051496 33.14358 34.416003 74.345838 31.022876 120.153052-0.157538 2.144941 0.78769 3.556724 2.847803 4.241409 189.530383 64.530006 301.079435 251.75791 297.019801 446.075026-3.938451 187.833819-133.725561 346.765467-310.955858 398.450063-120.371182 35.106747-234.004584 15.57203-340.888087-58.592033-301.382393-209.040864-225.582358-674.686961 117.911165-786.963112 2.102527-0.684685 3.150761-2.120704 3.150761-4.302001z m62.045752-12.663634l107.610601 2.241887a1.57538 1.57538 0 0 0 1.575381-1.514789l0.545324-23.509523c0.302958-14.747984-5.004862-29.011236-14.766162-39.651113-9.761299-10.633818-23.17021-16.771742-37.281984-17.062582l-4.362592-0.121183c-14.111773-0.290839-27.76305 5.289643-37.960609 15.511438-10.191499 10.233914-16.087058 24.266918-16.390015 39.020961l-0.484733 23.509523c0 0.848282 0.666507 1.545085 1.514789 1.575381z m-0.848282 66.165977l-38.233271 6.119747c-45.116472 12.687872-85.676458 33.428361-121.667841 62.227527-143.844351 115.184545-190.98458 307.199182-110.337221 477.158493 47.019046 97.734178 137.724604 173.110072 243.759824 198.437341 49.079159 11.754762 96.64353 11.69417 142.693111-0.181775 173.776579-33.567721 293.202533-193.468834 291.263603-367.003046-1.048234-90.523783-28.175073-171.492277-81.374457-242.911543-75.315302-100.94553-199.406806-158.931648-326.103748-133.846744z" fill="#343333" p-id="7918"></path><path d="M462.745125 140.738731a1.57538 1.57538 0 0 1-1.514789-1.575381l0.484733-23.509523c0.302958-14.754044 6.198516-28.787048 16.390015-39.020961 10.197559-10.221795 23.848836-15.802277 37.960609-15.511438l4.362592 0.121183c14.111773 0.290839 27.520684 6.428764 37.281984 17.062582 9.761299 10.639877 15.075179 24.903129 14.766162 39.651113l-0.545324 23.509523a1.57538 1.57538 0 0 1-1.575381 1.514789l-107.610601-2.241887z" fill="#FEFEFE" p-id="7919"></path><path d="M743.647573 165.520676c-24.903129-10.664114-43.989469-19.08634-64.469415-30.962284-21.146453-12.239494-8.664592-38.718003 7.089212-46.958455 24.17603-12.603043 70.831527 16.723269 88.46367 32.416482 25.569636 22.843016 3.817268 60.40978-31.083467 45.504257z" fill="#343333" p-id="7920"></path><path d="M578.111445 950.666041c11.512395-9.209916 23.024791-17.813917 34.537186-25.812002 112.882066-78.526655 193.7112-219.765569 183.16827-359.36851-9.937015-131.604857-83.979895-270.056559-205.829511-327.860903-38.693767-18.335004-81.392635-28.574977-128.090547-30.719918 126.696941-25.084904 250.788445 32.901214 326.103748 133.846744 53.199385 71.419265 80.326224 152.38776 81.374457 242.911543 1.93893 173.534212-117.487024 333.435325-291.263603 367.003046z" fill="#CA9F54" p-id="7921"></path><path d="M461.896843 206.904708c46.697911 2.144941 89.39678 12.384914 128.090547 30.719918 121.849616 57.804343 195.892496 196.256045 205.829511 327.860903 10.542931 139.602942-70.286203 280.841856-183.16827 359.36851-11.512395 7.998085-23.024791 16.602086-34.537186 25.812002-46.049582 11.875945-93.613952 11.936536-142.693111 0.181775-106.035221-25.32727-196.740778-100.703164-243.759824-198.437341 3.435541-0.121183 5.780434-1.2906 7.02862-3.514311 0.890696-1.611735 0.769513-3.817268-0.363549-6.604479-15.469024-37.203215-24.315391-78.987151-26.539101-125.363927-2.623614-54.932303 4.786733-105.283885 22.2371-151.054745 14.299607-37.481936 26.296735-63.899854 35.991384-79.253754 41.68699-66.044795 111.730827-133.967927 188.136777-156.932126 1.981344-0.563501 3.720321-1.551144 5.210874-2.968986 1.738978-1.696564 3.780913-2.666028 6.119747-2.908395 2.144941-0.242366 3.538547-1.369369 4.180817-3.393127 0.811927-2.544845 0.242366-4.562544-1.696564-6.059156-0.884637-0.684685-2.241888-1.030056-4.059634-1.030056-1.2906 0-2.702383-0.096946-4.241409-0.302958l38.233271-6.119747z m137.542829 243.153909c-6.483296-20.116396-15.99617-52.896427-33.022397-66.408344-12.239494-9.634057-28.659805-5.877381-42.717046-2.423662a13.299846 13.299846 0 0 1-11.209437-2.302479c-9.452283-7.064975-20.213343-8.137446-32.295299-3.211353-32.295299 13.208959-44.292426 41.384032-48.473244 74.285246a4.392888 4.392888 0 0 1-4.726141 3.817268c-46.170765-3.51431-79.799077 20.055805-62.469893 70.710345 0.690744 1.981344 0.727099 3.980865 0.121183 5.998564a49.654779 49.654779 0 0 1-11.633578 19.934621c-26.781467 28.235664-68.650231 63.560541-84.525219 97.188854-17.208002 36.294341 17.389776 61.318653 48.049103 70.528569 41.32344 12.48186 86.040008 26.599692 112.154968 63.621133 22.903608 32.440718 43.444145 58.47085 61.621611 78.102514 18.843973 20.358762 39.74806-5.513831 52.714652-20.782904 35.991383-42.171722 62.469893-86.767106 116.759926-108.216516 31.144059-12.318263 50.557593-20.273934 58.228484-23.873073 54.835357-26.054368 31.992341-75.194119 1.090648-108.095333-22.212864-23.630706-43.807694-46.976632-64.772372-70.043837a5.089691 5.089691 0 0 1 0.363549-7.270987c30.659327-27.205608 5.635015-59.500907-26.236143-65.07533a292.463316 292.463316 0 0 0-24.96372-3.211352c-2.060113-0.199952-3.411305-1.2906-4.059635-3.271944z" fill="#FCC556" p-id="7922"></path><path d="M423.663572 213.024455c1.539025 0.206011 2.950809 0.302958 4.241409 0.302958 1.817747 0 3.174997 0.345372 4.059634 1.030056 1.93893 1.496611 2.50849 3.51431 1.696564 6.059156-0.64227 2.023758-2.035876 3.150761-4.180817 3.393127-2.338834 0.242366-4.380769 1.211831-6.119747 2.908395a12.457624 12.457624 0 0 1-5.210874 2.968986c-76.40595 22.964199-146.449788 90.887332-188.136777 156.932126-9.694649 15.3539-21.691777 41.771818-35.991384 79.253754-17.450368 45.77086-24.860715 96.122442-22.2371 151.054745 2.22371 46.376776 11.070077 88.160712 26.539101 125.363927 1.133062 2.787212 1.254245 4.992744 0.363549 6.604479-1.248186 2.22371-3.593079 3.393127-7.02862 3.514311-80.647359-169.959311-33.50713-361.973947 110.337221-477.158493 35.991383-28.799166 76.55137-49.539655 121.667841-62.227527z" fill="#E4D1A8" p-id="7923"></path><path d="M603.499307 453.330561c8.482818 0.727099 16.808097 1.799569 24.96372 3.211352 31.871158 5.574423 56.89547 37.869722 26.236143 65.07533a5.089691 5.089691 0 0 0-0.363549 7.270987c20.964678 23.067205 42.559508 46.413131 64.772372 70.043837 30.901693 32.901214 53.744709 82.040965-1.090648 108.095333-7.670891 3.599138-27.084425 11.554809-58.228484 23.873073-54.290033 21.44941-80.768542 66.044795-116.759926 108.216516-12.966593 15.269072-33.870679 41.141666-52.714652 20.782904-18.177466-19.631664-38.718003-45.661796-61.621611-78.102514-26.11496-37.02144-70.831527-51.139272-112.154968-63.621133-30.659327-9.209916-65.257104-34.234228-48.049103-70.528569 15.874987-33.628313 57.743752-68.953189 84.525219-97.188854a49.654779 49.654779 0 0 0 11.633578-19.934621c0.605916-2.017699 0.569561-4.01722-0.121183-5.998564-17.329185-50.65454 16.299128-74.224654 62.469893-70.710345a4.392888 4.392888 0 0 0 4.726141-3.817268c4.180817-32.901214 16.177945-61.076287 48.473244-74.285246 12.081956-4.926093 22.843016-3.853623 32.295299 3.211353a13.299846 13.299846 0 0 0 11.209437 2.302479c14.057241-3.453719 30.477552-7.210395 42.717046 2.423662 17.026227 13.511917 26.539101 46.291948 33.022397 66.408344 0.64833 1.981344 1.999521 3.071992 4.059635 3.271944z m-261.210192 209.646779c36.779074 11.148846 70.407386 22.540058 99.127783 48.71561 23.594351 21.44941 45.504258 44.716567 65.741837 69.801471a4.66555 4.66555 0 0 0 7.452761-0.302958c25.369684-37.203215 56.859115-68.486634 94.462234-93.856318 18.29865-12.360677 42.353497-20.904086 64.348231-31.689383a9.452283 9.452283 0 0 0 2.181296-15.511438c-24.236622-22.055326-47.600725-46.370717-70.104429-72.952232-14.257193-16.880807-18.213821-35.361231-11.875945-55.441272 0.690744-2.096468-0.078769-3.029578-2.302479-2.787212-38.899778 4.66555-44.534793-22.358284-52.290511-52.22992a5.544127 5.544127 0 0 0-4.968508-4.180817l-33.567721-2.544846c-2.702383-0.199952-4.562544 0.951287-5.574423 3.453719a141.032903 141.032903 0 0 1-21.934143 36.960848c-10.058198 12.239494-22.721833 14.299607-37.566764 16.541495a8.028381 8.028381 0 0 0-6.846846 7.937493c0 13.511917 4.786733 46.534314-6.362113 56.350146-8.422226 7.452761-18.965157 12.724226-27.023833 21.207044-19.389297 20.52236-37.869722 41.165902-55.441273 61.924569a5.392648 5.392648 0 0 0 2.544846 8.604001z" fill="#343333" p-id="7924"></path><path d="M441.416898 711.69295c-28.720397-26.175552-62.34871-37.566764-99.127783-48.71561a5.392648 5.392648 0 0 1-2.544846-8.604001c17.571551-20.758667 36.051975-41.402209 55.441273-61.924569 8.058677-8.482818 18.601607-13.754283 27.023833-21.207044 11.148846-9.815832 6.362113-42.838229 6.362113-56.350146a8.028381 8.028381 0 0 1 6.846846-7.937493c14.844931-2.241888 27.508566-4.302 37.566764-16.541495a141.032903 141.032903 0 0 0 21.934143-36.960848c1.011879-2.502431 2.87204-3.653671 5.574423-3.453719l33.567721 2.544846c2.399426 0.187834 4.398947 1.878338 4.968508 4.180817 7.755719 29.871636 13.390734 56.89547 52.290511 52.22992 2.22371-0.242366 2.993223 0.690744 2.302479 2.787212-6.337877 20.080041-2.381248 38.560465 11.875945 55.441272 22.503703 26.581515 45.867807 50.896906 70.104429 72.952232a9.452283 9.452283 0 0 1-2.181296 15.511438c-21.994734 10.785297-46.049582 19.328706-64.348231 31.689383-37.603119 25.369684-69.09255 56.653104-94.462234 93.856318a4.66555 4.66555 0 0 1-7.452761 0.302958c-20.237579-25.084904-42.147485-48.352061-65.741837-69.801471z" fill="#FEFEFE" p-id="7925"></path></svg>